<svg xmlns="http://www.w3.org/2000/svg" strokeWidth="2" viewBox="0 0 1024 1024"><path fill="#000000" d="M783.56,543.21a34.65,34.65,0,0,0-49-.34l-.34.34L545.91,731.53,530.8,790.58c-1,4-1.68,11.07,3,15.78,3,3,6.71,3.69,10.07,3.69a23.35,23.35,0,0,0,5.37-.67l59.05-15.78L796.66,605.32a34.85,34.85,0,0,0,0-49Zm-229.31,243,9.4-36.59,27.19,27.19Zm54-22.49-31.55-31.89L724.15,584.5,756,616.39ZM781.89,590.55l-10.74,10.74L739.27,569.4,750,558.66a13.58,13.58,0,0,1,18.8,0l13.09,13.09A13.59,13.59,0,0,1,781.89,590.55ZM289.45,312.94H734.56c11.75,0,19.47-6.71,19.47-16.79s-7.72-16.79-19.13-16.79H289.45c-11.41,0-19.13,6.71-19.13,16.79S278,312.94,289.45,312.94ZM289.45,407.6H734.56c11.75,0,19.13-6.71,19.47-16.79,0-10.07-7.72-16.79-19.13-16.79H289.45c-11.41,0-19.13,6.71-19.13,16.79S278,407.6,289.45,407.6ZM289.45,502.6H734.56c11.75,0,19.13-6.71,19.47-16.79,0-10.07-7.72-16.79-19.13-16.79H289.45c-11.41,0-19.13,6.71-19.13,16.79S278,502.6,289.45,502.6ZM428.41,563.69H286.76c-9.73,0-16.45,6.71-16.45,16.79s6.71,16.79,16.45,16.79H428.41c10.07,0,16.45-6.71,16.45-16.79S438.15,563.69,428.41,563.69ZM817.47,136H206.53A70.56,70.56,0,0,0,136,206.53V817.47A70.56,70.56,0,0,0,206.53,888H817.47A70.56,70.56,0,0,0,888,817.47V206.53A70.56,70.56,0,0,0,817.47,136ZM854.4,817.47a37,37,0,0,1-36.93,36.93H206.53a37,37,0,0,1-36.93-36.93V206.53a37,37,0,0,1,36.93-36.93H817.47a37,37,0,0,1,36.93,36.93Z" /></svg>