<?xml version="1.0" standalone="no"?><!DOCTYPE svg PUBLIC "-//W3C//DTD SVG 1.1//EN" "http://www.w3.org/Graphics/SVG/1.1/DTD/svg11.dtd"><svg t="1778032496047" class="icon" viewBox="0 0 1024 1024" version="1.1" xmlns="http://www.w3.org/2000/svg" p-id="49284" xmlns:xlink="http://www.w3.org/1999/xlink" width="200" height="200"><path d="M725.504 0a37.814857 37.814857 0 0 0-37.302857 38.546286v34.304H335.725714V38.546286A37.814857 37.814857 0 0 0 298.496 0c-16.603429 0-33.133714 17.115429-33.133714 38.546286v34.304H70.509714c-37.302857 0-70.509714 34.230857-70.509714 72.850285v805.449143c0 38.546286 33.133714 72.850286 70.509714 72.850286h882.980572c37.302857 0 70.509714-34.304 70.509714-72.850286V145.700571c0-38.619429-33.133714-72.850286-70.509714-72.850285h-194.852572V38.546286c0-21.430857-16.530286-38.546286-33.133714-38.546286z m0 218.477714c16.603429 0 33.133714-17.115429 33.133714-34.230857v-38.546286h194.852572v145.627429H70.509714V145.700571h194.852572v38.546286c0 17.115429 16.530286 34.230857 33.133714 34.230857 20.699429 0 37.302857-17.115429 37.302857-34.230857v-38.546286H688.274286v38.546286c0 17.115429 16.603429 34.230857 37.302857 34.230857zM70.509714 951.149714V364.251429h882.980572v586.971428H70.509714z" p-id="49285"></path><path d="M336.457143 402.285714h146.285714v146.285715h-146.285714zM555.885714 402.285714h146.285715v146.285715h-146.285715zM775.314286 402.285714h146.285714v146.285715h-146.285714zM117.028571 585.142857h146.285715v146.285714h-146.285715zM336.457143 585.142857h146.285714v146.285714h-146.285714zM555.885714 585.142857h146.285715v146.285714h-146.285715zM775.314286 585.142857h146.285714v146.285714h-146.285714zM117.028571 768h146.285715v146.285714h-146.285715zM336.457143 768h146.285714v146.285714h-146.285714zM555.885714 768h146.285715v146.285714h-146.285715zM775.314286 768h146.285714v146.285714h-146.285714z" p-id="49286"></path></svg>