<?xml version="1.0" standalone="no"?><!DOCTYPE svg PUBLIC "-//W3C//DTD SVG 1.1//EN" "http://www.w3.org/Graphics/SVG/1.1/DTD/svg11.dtd"><svg t="1778033106027" class="icon" viewBox="0 0 1049 1024" version="1.1" xmlns="http://www.w3.org/2000/svg" p-id="68594" xmlns:xlink="http://www.w3.org/1999/xlink" width="204.8828125" height="200"><path d="M891.725268 619.432892c-86.462508 0-156.793951 68.395715-156.793951 152.922496v5.807183c1.935728 50.328922 30.326402 107.110271 77.429111 164.536862a591.042218 591.042218 0 0 0 74.202899 76.138626l5.161941 5.161941 10.323881-8.388154 4.516699-4.516698 9.033396-8.388154a550.391934 550.391934 0 0 0 55.490863-60.007561c47.10271-57.426591 76.138626-114.20794 78.074354-164.536862v-5.807183c0-84.52678-70.331443-152.922495-157.439193-152.922496z m76.783869 155.503466v4.516698c-3.226213 28.390674-22.583491 67.750473-59.362319 112.272212l-8.388154 9.678639-9.033396 10.323881-16.776308-20.00252c-38.714556-47.10271-58.717076-88.398236-59.362319-116.78891v-6.452426a74.848141 74.848141 0 0 1 76.138627-68.395715c43.231254 0 76.783869 32.907372 76.783869 72.267171z" p-id="68595"></path><path d="M892.047557 776.755433m-43.955552 10.390653a45.166982 45.166982 0 1 0 87.911104-20.781305 45.166982 45.166982 0 1 0-87.911104 20.781305Z" p-id="68596"></path><path d="M176.151229 323.266541m50.974165 0l516.839319 0q50.974165 0 50.974165 50.974165l0-0.258097q0 50.974165-50.974165 50.974165l-516.839319 0q-50.974165 0-50.974165-50.974165l0 0.258097q0-50.974165 50.974165-50.974165Z" fill="#2C2C2C" p-id="68597"></path><path d="M176.151229 500.063012m50.974165 0l366.497794 0q50.974165 0 50.974165 50.974165l0-0.258097q0 50.974165-50.974165 50.974165l-366.497794 0q-50.974165 0-50.974165-50.974165l0 0.258097q0-50.974165 50.974165-50.974165Z" fill="#2C2C2C" p-id="68598"></path><path d="M176.151229 677.504726m44.521739 0l272.937618 0q44.521739 0 44.521739 44.521739l0 12.646755q0 44.521739-44.521739 44.521739l-272.937618 0q-44.521739 0-44.521739-44.521739l0-12.646755q0-44.521739 44.521739-44.521739Z" fill="#2C2C2C" p-id="68599"></path><path d="M717.509767 944.635161h-638.79017V146.470069H238.739761v21.938249a36.133585 36.133585 0 0 0 36.133585 36.133585h405.857593a35.488343 35.488343 0 0 0 36.133585-36.133585v-21.938249h160.020164v423.279143a328.428481 328.428481 0 0 1 35.488343-2.58097 239.385003 239.385003 0 0 1 43.231254 3.871456V103.884058a36.133585 36.133585 0 0 0-36.133586-35.488343h-202.606175v-32.26213a36.133585 36.133585 0 0 0-36.133585-36.133585H274.873346A36.133585 36.133585 0 0 0 238.739761 36.133585v32.26213H36.133585A36.133585 36.133585 0 0 0 0 104.529301v883.337114a36.133585 36.133585 0 0 0 36.133585 36.133585H813.005671a233.57782 233.57782 0 0 1-95.495904-79.364839z m-406.502836-873.013233h333.590422v60.652804H311.006931z" fill="#2C2C2C" p-id="68600"></path></svg>