<?xml version="1.0" standalone="no"?><!DOCTYPE svg PUBLIC "-//W3C//DTD SVG 1.1//EN" "http://www.w3.org/Graphics/SVG/1.1/DTD/svg11.dtd"><svg t="1778032556050" class="icon" viewBox="0 0 1024 1024" version="1.1" xmlns="http://www.w3.org/2000/svg" p-id="50430" xmlns:xlink="http://www.w3.org/1999/xlink" width="200" height="200"><path d="M904.648 35.791 385.796 35.791c-55.557 0-100.823 45.166-100.823 100.772l0 96.277L73.636 338.958c-1.897 1-3.798 2.198-5.746 3.498C24.375 373.032 0.392 420.695 0.392 476.654l0 359.821c0 26.18 21.284 47.466 47.414 47.466 26.18 0 47.414-21.287 47.414-47.466L95.22 476.653c0-24.484 8.344-42.57 23.832-54.31l234.87-118.009c2.299-1.15 3.849-2.598 5.599-4.146 2.347-1.6 4.996-3.398 7.594-6.146 1.748-1.897 3.047-3.997 5.694-8.394 1.199-1.798 2.646-4.046 3.747-6.944 1.149-3.198 1.599-6.197 2.249-10.341 0.448-1.449 1.048-3.599 1.048-6.346L379.853 136.563c0-3.247 2.698-5.946 5.945-5.946l518.853 0c13.34 0 24.132 11.093 24.132 24.681l0 678.979c0 26.181 21.234 47.463 47.412 47.463 26.131 0 47.413-21.283 47.413-47.463L1023.608 155.298C1023.606 89.399 970.247 35.791 904.648 35.791zM723.738 673.852c-70.347 0-131.251 46.014-151.186 113.013L452.094 786.865C432.259 719.816 371.307 673.75 300.81 673.75c-87.233 0-158.178 70.946-158.178 158.181 0 87.282 70.945 158.278 158.178 158.278 67.798 0 128.05-44.167 149.437-108.469L574.25 881.74c21.384 64.251 81.637 108.417 149.487 108.417 87.182 0 158.128-70.995 158.128-158.178S810.92 673.852 723.738 673.852zM723.738 895.281c-34.873 0-63.302-28.429-63.302-63.302 0-34.923 28.429-63.302 63.302-63.302 34.872 0 63.248 28.379 63.248 63.302C786.987 866.853 758.609 895.281 723.738 895.281zM300.812 895.33c-34.924 0-63.301-28.478-63.301-63.45 0-34.926 28.377-63.351 63.301-63.351s63.351 28.425 63.351 63.351C364.164 866.853 335.735 895.33 300.812 895.33zM189.347 595.561l143.091 0c26.129 0 47.414-21.233 47.414-47.363L379.852 405.108c0-26.129-21.285-47.413-47.414-47.413-26.181 0-47.463 21.285-47.463 47.413l0 95.677-95.627 0c-26.129 0-47.413 21.284-47.413 47.412C141.934 574.328 163.216 595.561 189.347 595.561z" fill="#272636" p-id="50431"></path></svg>