<?xml version="1.0" standalone="no"?><!DOCTYPE svg PUBLIC "-//W3C//DTD SVG 1.1//EN" "http://www.w3.org/Graphics/SVG/1.1/DTD/svg11.dtd"><svg t="1778031256764" class="icon" viewBox="0 0 1024 1024" version="1.1" xmlns="http://www.w3.org/2000/svg" p-id="6084" xmlns:xlink="http://www.w3.org/1999/xlink" width="200" height="200"><path d="M825.84 129.98c31.56 0 61.23 12.29 83.55 34.61S944 216.58 944 248.14v577.28c0 31.56-12.29 61.23-34.61 83.55s-51.99 34.61-83.55 34.61H198.16c-31.56 0-61.23-12.29-83.55-34.61S80 856.98 80 825.42V248.14c0-31.56 12.29-61.23 34.61-83.55s51.99-34.61 83.55-34.61h627.68m0-80H198.16C88.72 49.98 0 138.7 0 248.14v577.28c0 109.44 88.72 198.16 198.16 198.16h627.68c109.44 0 198.16-88.72 198.16-198.16V248.14c0-109.44-88.72-198.16-198.16-198.16z" fill="#000000" p-id="6085"></path><path d="M13.02 281.98h977.87v80H13.02zM301.86 227.49c-22.09 0-40-17.91-40-40V40.43c0-22.09 17.91-40 40-40s40 17.91 40 40v147.06c0 22.09-17.91 40-40 40zM727.07 227.49c-22.09 0-40-17.91-40-40V40.43c0-22.09 17.91-40 40-40s40 17.91 40 40v147.06c0 22.09-17.91 40-40 40zM474.71 770.13c-18.32 0-36.12-7.35-49.09-20.32L309.8 633.99c-15.62-15.62-15.62-40.95 0-56.57 15.62-15.62 40.95-15.62 56.57 0l107.9 107.9 186.82-208.44c14.74-16.45 40.03-17.84 56.48-3.09 16.45 14.74 17.83 40.03 3.09 56.48L526.37 747.05c-12.67 14.13-30.81 22.53-49.78 23.05-0.62 0.02-1.25 0.03-1.87 0.03z" fill="#000000" p-id="6086"></path></svg>