<?xml version="1.0" standalone="no"?><!DOCTYPE svg PUBLIC "-//W3C//DTD SVG 1.1//EN" "http://www.w3.org/Graphics/SVG/1.1/DTD/svg11.dtd"><svg t="1778032851764" class="icon" viewBox="0 0 1024 1024" version="1.1" xmlns="http://www.w3.org/2000/svg" p-id="59188" xmlns:xlink="http://www.w3.org/1999/xlink" width="200" height="200"><path d="M539.904 24.96a48 48 0 0 0-55.808 0L135.68 273.856 36.096 344.896a48 48 0 0 0 55.808 78.144l23.68-16.896V960a48 48 0 0 0 96 0V337.6L512 123.008l300.416 214.592V544a48 48 0 1 0 96 0V406.144l23.68 16.896a48 48 0 1 0 55.808-78.08L888.32 273.856 539.904 24.896zM592 576a48 48 0 1 1 96 0 48 48 0 0 1-96 0zM640 432a144 144 0 1 0 0 288 144 144 0 0 0 0-288z m-224 416a48 48 0 1 1 96 0 48 48 0 0 1-96 0zM464 704a144 144 0 1 0 0 288 144 144 0 0 0 0-288z m352 96a48 48 0 1 0 0 96 48 48 0 0 0 0-96z m-144 48a144 144 0 1 1 288 0 144 144 0 0 1-288 0z" fill="#333333" p-id="59189"></path></svg>