<?xml version="1.0" standalone="no"?><!DOCTYPE svg PUBLIC "-//W3C//DTD SVG 1.1//EN" "http://www.w3.org/Graphics/SVG/1.1/DTD/svg11.dtd"><svg t="1778032259390" class="icon" viewBox="0 0 1024 1024" version="1.1" xmlns="http://www.w3.org/2000/svg" p-id="39513" xmlns:xlink="http://www.w3.org/1999/xlink" width="200" height="200"><path d="M919.160686 25.380571A72.411429 72.411429 0 0 0 864.010971 0H159.498971a72.265143 72.265143 0 0 0-53.613714 23.698286 625.371429 625.371429 0 0 0-61.147428 76.580571A182.857143 182.857143 0 1 0 347.914971 299.154286a182.857143 182.857143 0 0 0 329.142858 0 182.857143 182.857143 0 1 0 291.913142-210.944c-13.897143-19.748571-30.573714-40.740571-49.810285-62.902857zM105.592686 140.726857c13.750857-20.699429 31.744-43.227429 54.052571-67.657143L863.7184 73.142857l12.8 15.067429c12.507429 14.994286 23.405714 29.037714 32.768 42.349714l8.777143 10.24a109.714286 109.714286 0 1 1-175.250286 126.390857L677.057829 131.657143 611.229257 267.264a109.641143 109.641143 0 0 1-197.485714 0L347.914971 131.657143l-65.828571 135.606857A109.641143 109.641143 0 0 1 73.629257 219.428571c0-26.697143 9.508571-51.712 26.477714-71.460571l5.485715-7.314286zM823.343543 475.428571c-71.899429 0-133.12-46.08-155.355429-110.445714a164.571429 164.571429 0 0 1-310.857143 0 164.571429 164.571429 0 0 1-283.574857 49.225143L73.629257 950.857143a73.142857 73.142857 0 0 0 73.142857 73.142857h731.428572a73.142857 73.142857 0 0 0 73.142857-73.142857V414.354286a164.278857 164.278857 0 0 1-128 61.074285z m-162.230857 20.992l6.729143-5.778285 6.875428 5.705143c41.033143 32.914286 93.037714 52.224 148.626286 52.224l15.506286-0.512c10.24-0.658286 20.333714-1.974857 30.281142-3.949715L878.200686 542.134857 878.200686 950.857143H549.057829v-109.714286h73.142857a36.571429 36.571429 0 0 0 0-73.142857h-73.142857V731.428571h73.142857a36.571429 36.571429 0 0 0 0-73.142857h-31.890286l53.028571-53.028571a36.571429 36.571429 0 0 0-51.712-51.712l-77.531428 77.531428-77.604572-77.531428a36.571429 36.571429 0 1 0-51.712 51.712L437.807543 658.285714H402.772114a36.571429 36.571429 0 0 0 0 73.142857h73.142857v36.571429h-73.142857a36.571429 36.571429 0 0 0 0 73.142857h73.142857V950.857143H146.772114l-0.146285-408.868572 9.142857 2.194286c14.921143 2.925714 30.281143 4.388571 45.860571 4.388572l13.824-0.365715a237.275429 237.275429 0 0 0 134.802286-51.785143l6.729143-5.778285 6.875428 5.705143a237.348571 237.348571 0 0 0 297.252572 0z" fill="#222222" p-id="39514"></path></svg>