<?xml version="1.0" standalone="no"?><!DOCTYPE svg PUBLIC "-//W3C//DTD SVG 1.1//EN" "http://www.w3.org/Graphics/SVG/1.1/DTD/svg11.dtd"><svg t="1778032968038" class="icon" viewBox="0 0 1024 1024" version="1.1" xmlns="http://www.w3.org/2000/svg" p-id="62966" xmlns:xlink="http://www.w3.org/1999/xlink" width="200" height="200"><path d="M896 64a128 128 0 0 1 127.914667 123.2L1024 192v128a128.042667 128.042667 0 0 1-106.666667 126.229333V832a128 128 0 0 1-123.2 127.914667L789.333333 960H234.666667a128 128 0 0 1-127.914667-123.2L106.666667 832V446.229333a128.042667 128.042667 0 0 1-106.56-120.96L0 320V192a128 128 0 0 1 123.2-127.914667L128 64h768z m-64 384H192v384a42.666667 42.666667 0 0 0 36.202667 42.176l3.285333 0.384L234.666667 874.666667h554.666666a42.666667 42.666667 0 0 0 42.56-39.466667L832 832V448z m-128 213.333333a42.666667 42.666667 0 1 1 0 85.333334h-170.666667a42.666667 42.666667 0 1 1 0-85.333334h170.666667z m192-512H128a42.666667 42.666667 0 0 0-42.56 39.466667L85.333333 192v128a42.666667 42.666667 0 0 0 39.466667 42.56L128 362.666667h768a42.666667 42.666667 0 0 0 42.56-39.466667L938.666667 320V192a42.666667 42.666667 0 0 0-39.466667-42.56L896 149.333333z" fill="#121212" fill-opacity=".88" p-id="62967"></path></svg>