<?xml version="1.0" standalone="no"?><!DOCTYPE svg PUBLIC "-//W3C//DTD SVG 1.1//EN" "http://www.w3.org/Graphics/SVG/1.1/DTD/svg11.dtd"><svg t="1778031613363" class="icon" viewBox="0 0 1024 1024" version="1.1" xmlns="http://www.w3.org/2000/svg" p-id="23239" xmlns:xlink="http://www.w3.org/1999/xlink" width="200" height="200"><path d="M712.533333 388.266667c-162.133333 0-298.666667 132.266667-298.666667 298.666667s132.266667 298.666667 298.666667 298.666667 298.666667-132.266667 298.666667-298.666667C1015.466667 520.533333 878.933333 388.266667 712.533333 388.266667zM712.533333 934.4c-136.533333 0-247.466667-110.933333-247.466667-247.466667s110.933333-247.466667 247.466667-247.466667 247.466667 110.933333 247.466667 247.466667S849.066667 934.4 712.533333 934.4zM162.133333 209.066667l426.666667 0 0 68.266667-426.666667 0L162.133333 209.066667 162.133333 209.066667zM162.133333 384l341.333333 0 0 68.266667-341.333333 0L162.133333 384zM162.133333 584.533333l170.666667 0 0 68.266667-170.666667 0L162.133333 584.533333 162.133333 584.533333zM371.2 900.266667l-298.666667 0L72.533333 68.266667l686.933333 0 0 238.933333c17.066667 0 55.466667 4.266667 72.533333 4.266667L832 34.133333c0-17.066667-17.066667-34.133333-34.133333-34.133333L34.133333 0C17.066667 0 0 17.066667 0 34.133333L0 938.666667c0 17.066667 17.066667 34.133333 34.133333 34.133333l379.733333 0C396.8 951.466667 384 917.333333 371.2 900.266667L371.2 900.266667zM772.266667 516.266667 853.333333 516.266667l0 0 0 0-89.6 153.6 64 0 0 46.933333-76.8 0 0 34.133333 76.8 0 0 46.933333-76.8 0 0 64L682.666667 861.866667l0-64-81.066667 0 0-46.933333L682.666667 750.933333l0-34.133333-81.066667 0 0-46.933333 64 0-85.333333-149.333333 72.533333 0c34.133333 68.266667 55.466667 115.2 64 136.533333l0 0" fill="#272636" p-id="23240"></path></svg>