<?xml version="1.0" standalone="no"?><!DOCTYPE svg PUBLIC "-//W3C//DTD SVG 1.1//EN" "http://www.w3.org/Graphics/SVG/1.1/DTD/svg11.dtd"><svg t="1778031843163" class="icon" viewBox="0 0 1024 1024" version="1.1" xmlns="http://www.w3.org/2000/svg" p-id="28057" xmlns:xlink="http://www.w3.org/1999/xlink" width="200" height="200"><path d="M494.762667 585.557333c-26.538667-28.416-38.698667-62.677333-45.184-99.072a364.8 364.8 0 0 1-6.528-59.477333 286.634667 286.634667 0 0 1 3.84-64.554667c9.642667-54.698667 38.698667-92.586667 83.626666-119.466666a195.157333 195.157333 0 0 1 103.936-29.354667 195.157333 195.157333 0 0 1 103.893334 29.312c44.928 26.88 74.026667 64.810667 83.626666 119.466667 3.968 21.461333 4.821333 43.008 3.84 64.597333a364.8 364.8 0 0 1-6.528 59.477333c-6.485333 36.394667-18.645333 70.656-45.184 99.072-1.28 1.792-5.76 9.301333-6.954666 11.434667 0.512 0.341333 120.106667 66.432 157.568 91.392 31.104 20.736 52.181333 50.517333 54.4 89.216 1.066667 18.858667 2.218667 55.637333 2.218666 74.538667 0 33.152-18.730667 43.733333-42.666666 43.733333-58.368 0-170.197333 0.170667-304.213334 0.042667-134.058667 0.128-234.752-0.213333-293.12-0.042667-25.642667 0.042667-42.666667-19.626667-42.666666-43.733333 0-18.901333 2.346667-55.68 3.413333-74.538667 2.133333-38.698667 10.965333-68.48 42.069333-89.173333 37.461333-25.002667 142.208-82.944 156.16-90.197334 0.426667-0.426667 2.56-0.853333 3.114667-1.28-1.237333-2.090667-7.381333-9.6-8.661333-11.392z m401.365333 225.493334c0-44.928-10.837333-67.84-46.634667-87.594667-26.154667-14.464-115.285333-63.018667-131.541333-74.581333-21.333333-15.189333-30.293333-37.717333-25.514667-61.781334 0.682667-4.992 2.133333-10.069333 4.309334-15.189333 4.053333-9.514667 17.92-29.696 18.517333-30.378667 12.373333-14.933333 20.565333-31.445333 24.533333-50.090666 1.109333-5.376 8.448-79.786667 3.968-107.946667a102.784 102.784 0 0 0-38.058666-65.152 120.064 120.064 0 0 0-30.677334-16.341333 125.269333 125.269333 0 0 0-41.898666-7.808 125.269333 125.269333 0 0 0-41.898667 7.808c-11.690667 4.266667-21.888 9.770667-30.72 16.341333-19.626667 15.573333-33.706667 37.930667-38.016 65.152-4.48 28.16 2.858667 102.570667 4.010667 107.946667 3.925333 18.645333 12.074667 35.114667 24.490666 50.090666 0.554667 0.682667 14.464 20.906667 18.517334 30.378667 2.176 5.12 5.76 10.197333 6.485333 15.189333 4.736 24.064-6.357333 46.592-27.690667 61.781334-16.213333 11.52-94.208 60.16-120.362666 74.581333-35.84 19.797333-44.672 46.293333-43.946667 87.594667h512.128zM480.768 218.069333c-32.128-16.469333-72.362667-19.925333-111.189333-5.930666C322.133333 229.290667 295.68 262.912 289.066667 311.466667a298.368 298.368 0 0 0 6.656 112.085333c8.576 34.56 47.018667 82.858667 53.674666 93.866667 17.792 29.312 5.333333 62.165333-28.757333 81.749333-19.072 11.008-39.168 22.997333-59.008 34.005333-29.653333 16.426667-59.434667 32.64-89.258667 48.768-40.832 22.101333-62.378667 40.106667-54.058666 86.997334h95.104c29.568 0 42.453333 21.845333 42.581333 42.538666 0 21.205333-15.189333 41.472-42.581333 41.472-32.597333 0-57.472 0.128-107.264 0C63.445333 852.778667 40.277333 830.293333 42.666667 788.48c1.152-20.053333 2.688-34.986667 3.84-55.04 2.389333-41.258667 23.722667-72.96 57.344-94.976 40.448-26.581333 83.456-49.493333 125.610666-73.642667 9.472-5.418667 25.813333-13.525333 49.066667-24.32a230.570667 230.570667 0 0 0-10.581333-12.672c-33.408-35.072-46.933333-76.970667-53.077334-122.666666-6.058667-44.885333-7.68-89.813333 4.608-134.101334 29.141333-104.874667 145.194667-166.101333 255.445334-134.912 30.592 8.618667 57.472 32.256 57.472 32.256 20.437333 20.224-41.642667 54.101333-51.626667 49.664z" fill="#000000" p-id="28058"></path></svg>