<?xml version="1.0" standalone="no"?><!DOCTYPE svg PUBLIC "-//W3C//DTD SVG 1.1//EN" "http://www.w3.org/Graphics/SVG/1.1/DTD/svg11.dtd"><svg t="1778033248932" class="icon" viewBox="0 0 1055 1024" version="1.1" xmlns="http://www.w3.org/2000/svg" p-id="73559" xmlns:xlink="http://www.w3.org/1999/xlink" width="206.0546875" height="200"><path d="M972.726103 267.585979H81.798598A81.798598 81.798598 0 0 0 0.422268 357.655753l59.972619 588.879175c4.249072 41.751753 39.408165 73.506309 81.376329 73.506309h771.003382c41.968165 0 77.132536-31.754557 81.381608-73.506309l59.951505-588.879175a81.788041 81.788041 0 0 0-81.381608-90.069774zM81.798598 349.374021h890.927505l-59.951505 588.879175H141.750103L81.798598 349.374021z" fill="#41414D" p-id="73560"></path><path d="M641.768247 3.958763c65.968825 0 120.124701 52.16066 122.600248 118.081979l0.084453 4.602722v273.682474a40.89666 40.89666 0 0 1-81.666639 3.066722l-0.12668-3.061444V126.638186a40.89666 40.89666 0 0 0-37.82466-40.775258l-3.066722-0.121402H412.756454a40.89666 40.89666 0 0 0-40.76998 37.845773l-0.121402 3.072v273.661361a40.89666 40.89666 0 0 1-81.666639 3.066721l-0.121402-3.061443V126.638186c0.005278-65.963546 52.165938-120.108866 118.076701-122.584413l4.602722-0.100288h229.011793zM752.180784 780.953072v40.891382a40.89666 40.89666 0 0 1-40.891382 40.896659H343.240577a40.89666 40.89666 0 0 1-40.896659-40.896659v-40.891382h449.836866z" fill="#41414D" p-id="73561"></path></svg>