<?xml version="1.0" standalone="no"?><!DOCTYPE svg PUBLIC "-//W3C//DTD SVG 1.1//EN" "http://www.w3.org/Graphics/SVG/1.1/DTD/svg11.dtd"><svg t="1778031214989" class="icon" viewBox="0 0 1024 1024" version="1.1" xmlns="http://www.w3.org/2000/svg" p-id="4938" xmlns:xlink="http://www.w3.org/1999/xlink" width="200" height="200"><path d="M554.666667 874.666667a21.333333 21.333333 0 0 1 21.333333 21.333333v42.666667a21.333333 21.333333 0 0 1-21.333333 21.333333h-85.333334a21.333333 21.333333 0 0 1-21.333333-21.333333v-42.666667a21.333333 21.333333 0 0 1 21.333333-21.333333h85.333334zM170.666667 832a21.333333 21.333333 0 0 1-21.333334-21.333333v-42.666667a21.333333 21.333333 0 0 1 21.333334-21.333333h42.666666V448c0-150.528 111.36-275.072 256.213334-295.68A20.138667 20.138667 0 0 1 469.333333 149.333333V85.333333a21.333333 21.333333 0 0 1 21.333334-21.333333h42.666666a21.333333 21.333333 0 0 1 21.333334 21.333333v64c0 1.024-0.064 2.048-0.213334 3.029334C699.306667 172.928 810.666667 297.472 810.666667 448v298.666667h42.666666a21.333333 21.333333 0 0 1 21.333334 21.333333v42.666667a21.333333 21.333333 0 0 1-21.333334 21.333333H170.666667z m341.333333-597.333333c-117.824 0-213.333333 95.509333-213.333333 213.333333v298.666667h426.666666V448c0-115.84-92.309333-210.090667-207.36-213.248z" fill="#222429" p-id="4939"></path></svg>