<?xml version="1.0" standalone="no"?><!DOCTYPE svg PUBLIC "-//W3C//DTD SVG 1.1//EN" "http://www.w3.org/Graphics/SVG/1.1/DTD/svg11.dtd"><svg t="1778033308276" class="icon" viewBox="0 0 1024 1024" version="1.1" xmlns="http://www.w3.org/2000/svg" p-id="74685" xmlns:xlink="http://www.w3.org/1999/xlink" width="200" height="200"><path d="M929.28 189.44l-417.28 417.28-158.208-158.208-53.248 53.248 184.832 184.832 26.624 25.6 26.624-25.6 443.904-443.904-53.248-53.248z m-417.28-158.72c-266.24 0-480.768 214.528-480.768 480.768s214.528 480.768 480.768 480.768 480.768-214.528 480.768-480.768c0-51.712-7.168-103.424-25.6-151.552l-59.904 58.88c7.168 29.696 11.776 59.392 11.776 92.672 0 225.792-181.248 407.04-407.04 407.04s-407.04-181.248-407.04-407.04 181.248-407.04 407.04-407.04c111.104 0 210.432 44.032 281.088 114.688L844.8 167.424c-84.992-84.992-203.264-136.704-332.8-136.704z" p-id="74686"></path></svg>