<?xml version="1.0" standalone="no"?><!DOCTYPE svg PUBLIC "-//W3C//DTD SVG 1.1//EN" "http://www.w3.org/Graphics/SVG/1.1/DTD/svg11.dtd"><svg t="1778031409691" class="icon" viewBox="0 0 1024 1024" version="1.1" xmlns="http://www.w3.org/2000/svg" p-id="15692" xmlns:xlink="http://www.w3.org/1999/xlink" width="200" height="200"><path d="M860.14406 72.049813A127.521793 127.521793 0 0 0 767.69076 33.793275H157.498979A127.521793 127.521793 0 0 0 66.320897 77.788294a135.173101 135.173101 0 0 0-33.155667 94.366127v649.723537a133.897883 133.897883 0 0 0 41.444583 91.815691 127.521793 127.521793 0 0 0 91.178082 38.256538h288.199253a45.907846 45.907846 0 0 0 40.806974-46.545455 43.995019 43.995019 0 0 0-14.027397-33.155666 45.270237 45.270237 0 0 0-31.880449-14.665006H161.962242a35.706102 35.706102 0 0 1-24.229141-14.027397 42.719801 42.719801 0 0 1-7.651308-29.967622V167.691158a46.545455 46.545455 0 0 1 13.389789-28.692403 34.430884 34.430884 0 0 1 22.316313-7.651308h607.003736a36.98132 36.98132 0 0 1 24.229141 14.027397 45.270237 45.270237 0 0 1 10.839353 29.967622v240.37858a49.733499 49.733499 0 0 0 15.940224 29.330013 45.907846 45.907846 0 0 0 30.60523 11.476961 47.820672 47.820672 0 0 0 47.183064-47.183064V163.865504a133.260274 133.260274 0 0 0-41.444583-91.815691z" fill="#445365" p-id="15693"></path><path d="M773.42924 115.407223a55.47198 55.47198 0 0 1 47.183064 56.747198v242.291407a34.430884 34.430884 0 0 0 68.224159-4.463263V164.503113A123.058531 123.058531 0 0 0 767.69076 46.545455H158.136588a123.696139 123.696139 0 0 0-112.219178 127.521793v647.173101a122.420922 122.420922 0 0 0 119.870485 117.957658h286.286426a33.793275 33.793275 0 0 0 29.967622-33.793275 34.430884 34.430884 0 0 0-33.155667-35.068493H160.687024a55.47198 55.47198 0 0 1-46.545455-56.747198V166.41594a54.196762 54.196762 0 0 1 51.646326-51.008717h607.641345z" fill="#445365" p-id="15694"></path><path d="M629.329614 207.860523a44.632628 44.632628 0 0 0-32.518057-12.752179H230.186401a43.995019 43.995019 0 0 0-28.054795 15.302615 44.632628 44.632628 0 0 0-12.11457 31.242839 46.545455 46.545455 0 0 0 14.027397 33.155667 42.719801 42.719801 0 0 0 32.518058 14.027397h365.987546a42.719801 42.719801 0 0 0 28.692404-15.302615 47.820672 47.820672 0 0 0 0-63.760897z" fill="#445365" p-id="15695"></path><path d="M629.967223 241.016189a33.793275 33.793275 0 0 0-33.155666-34.430884H232.099228a34.430884 34.430884 0 0 0 4.463263 68.22416h364.712328a33.155666 33.155666 0 0 0 28.692404-33.793276zM629.329614 390.854296a44.632628 44.632628 0 0 0-32.518057-14.027397H230.186401a44.632628 44.632628 0 0 0-28.054795 15.940224 43.35741 43.35741 0 0 0-12.11457 30.605231 45.270237 45.270237 0 0 0 14.027397 33.155666 42.719801 42.719801 0 0 0 32.518058 14.027397h365.987546a42.719801 42.719801 0 0 0 28.692404-15.302615 45.907846 45.907846 0 0 0 8.926525-31.242839 46.545455 46.545455 0 0 0-10.839352-33.155667z" fill="#445365" p-id="15696"></path><path d="M629.967223 424.009963a33.793275 33.793275 0 0 0-33.155666-34.430885H232.099228a34.430884 34.430884 0 0 0 4.463263 68.22416h364.712328a33.793275 33.793275 0 0 0 28.692404-33.793275z" fill="#445365" p-id="15697"></path><path d="M757.489016 987.01868a229.539228 229.539228 0 1 1 228.901619-229.539228 229.539228 229.539228 0 0 1-228.901619 229.539228z m0-382.56538a153.026152 153.026152 0 1 0 153.026152 153.026152 153.026152 153.026152 0 0 0-153.026152-153.026152z" fill="#445365" p-id="15698"></path><path d="M744.099228 808.488169A38.256538 38.256538 0 0 1 703.929863 768.956413v-88.627646a38.256538 38.256538 0 0 1 76.513076 0V768.956413a38.256538 38.256538 0 0 1-36.343711 39.531756z" fill="#445365" p-id="15699"></path><path d="M831.451656 808.488169h-87.352428A38.256538 38.256538 0 0 1 703.929863 768.956413a38.256538 38.256538 0 0 1 38.256538-38.256538H831.451656a38.256538 38.256538 0 0 1 38.256538 38.256538 38.256538 38.256538 0 0 1-38.256538 39.531756z" fill="#445365" p-id="15700"></path></svg>