<?xml version="1.0" standalone="no"?><!DOCTYPE svg PUBLIC "-//W3C//DTD SVG 1.1//EN" "http://www.w3.org/Graphics/SVG/1.1/DTD/svg11.dtd"><svg t="1778032421602" class="icon" viewBox="0 0 1024 1024" version="1.1" xmlns="http://www.w3.org/2000/svg" p-id="45663" xmlns:xlink="http://www.w3.org/1999/xlink" width="200" height="200"><path d="M786.568533 887.6032v-613.034667h67.1744a34.133333 34.133333 0 0 1 34.133334 34.133334v544.768a34.133333 34.133333 0 0 1-34.133334 34.133333h-67.1744zM0 68.266667v820.292266a68.266667 68.266667 0 0 0 68.266667 68.266667h819.677866a68.266667 68.266667 0 0 0 68.266667-68.266667V275.0464a68.266667 68.266667 0 0 0-68.266667-68.266667h-101.376V68.266667a68.266667 68.266667 0 0 0-68.266666-68.266667H68.266667a68.266667 68.266667 0 0 0-68.266667 68.266667z m685.738667 819.336533H103.6288a34.133333 34.133333 0 0 1-34.133333-34.133333V103.697067a34.133333 34.133333 0 0 1 34.133333-34.133334h582.109867a34.133333 34.133333 0 0 1 34.133333 34.133334v749.7728a34.133333 34.133333 0 0 1-34.133333 34.133333z m-140.629334-662.664533a35.908267 35.908267 0 0 0-50.244266 0.546133l-104.516267 104.448-106.427733-106.496a29.9008 29.9008 0 0 0-43.690667 1.501867 34.952533 34.952533 0 0 0 1.365333 47.240533l89.156267 91.3408H250.811733a31.675733 31.675733 0 0 0 0 63.2832h105.472v104.0384H252.245333a33.109333 33.109333 0 0 0 0 66.218667H356.352v122.88a35.2256 35.2256 0 1 0 70.4512 0v-122.88h101.717333a33.109333 33.109333 0 0 0 0-66.218667H426.666667V426.8032h103.082666a31.675733 31.675733 0 0 0 0-63.2832h-79.872l94.958934-90.112a33.450667 33.450667 0 0 0 0.136533-48.469333z" fill="#666666" p-id="45664"></path></svg>